<svg width="160" height="48" viewBox="0 0 160 48" fill="none" xmlns="http://www.w3.org/2000/svg">
<g clip-path="url(#clip0_23_92)">
<path d="M29.1311 3.23235H28.0347V5.02774C28.0394 5.55785 28.265 6.06476 28.6625 6.43805C29.0599 6.81134 29.597 7.02078 30.1567 7.02076H31.0904V5.07464C31.0904 4.83157 31.0396 4.59091 30.941 4.36651C30.8423 4.14212 30.6978 3.93843 30.5157 3.76719C30.3335 3.59594 30.1174 3.46052 29.8798 3.36872C29.6422 3.27693 29.3877 3.23058 29.1311 3.23235Z" fill="#2A8A6A"/>
<path d="M34.8074 12.3165V41.3276C36.3988 41.3276 37.6897 40.2925 37.6897 39.0197V14.6211C37.6897 13.3482 36.3988 12.3165 34.8074 12.3165Z" fill="#2A8A6A"/>
<path d="M30.9136 10.7288V42.9956H30.8923C30.8626 43.2003 30.7833 43.3957 30.6606 43.5666C30.5379 43.7374 30.3751 43.8791 30.185 43.9804L23.179 47.8158C23.0151 47.9058 22.8341 47.9643 22.6463 47.988C22.4585 48.0116 22.2676 47.9999 22.0846 47.9536C21.9016 47.9072 21.7301 47.8271 21.5798 47.7178C21.4296 47.6085 21.3036 47.4722 21.2091 47.3167V47.2999C21.0036 47.0577 20.8913 46.7565 20.8908 46.4458V3.81854L2.88943 13.6631V38.1957C2.12498 38.1957 1.39185 37.908 0.851304 37.3961C0.31076 36.8841 0.00708414 36.1897 0.00708414 35.4657V12.6582C0.00657506 12.4748 0.0539574 12.2941 0.145012 12.1323C0.145355 12.1267 0.145355 12.1211 0.145012 12.1155C0.274662 11.8169 0.506272 11.5681 0.802822 11.4088L21.3152 0.197605C21.6267 0.0253342 21.9923 -0.037519 22.3479 0.0200762C22.7337 0.0209632 23.1034 0.166747 23.3759 0.425459C23.6484 0.684171 23.8014 1.03469 23.8014 1.40012V44.3254L28.0454 42.0109V7.99886C28.8076 8.00152 29.5377 8.29042 30.0754 8.80219C30.6131 9.31396 30.9145 10.0068 30.9136 10.7288Z" fill="#2A8A6A"/>
<path d="M16.2684 9.14448L6.0476 14.2459C5.79764 14.3714 5.58851 14.559 5.44269 14.7886C5.29688 15.0181 5.2199 15.281 5.22003 15.5489V38.2627C5.21997 38.5209 5.29187 38.7746 5.42849 38.9981C5.56511 39.2216 5.76159 39.407 5.99809 39.5356L16.2189 45.1026C16.4551 45.2314 16.7229 45.299 16.9954 45.2987C17.2679 45.2983 17.5356 45.2301 17.7714 45.1007C18.0072 44.9714 18.203 44.7855 18.3389 44.5618C18.4749 44.3382 18.5463 44.0845 18.546 43.8264V10.4475C18.5465 10.1938 18.4777 9.94438 18.3463 9.72335C18.2149 9.50233 18.0254 9.31725 17.7962 9.1861C17.5669 9.05496 17.3058 8.98221 17.0381 8.97491C16.7704 8.96762 16.5052 9.02603 16.2684 9.14448ZM10.6841 40.7883C10.5008 40.8122 10.3142 40.7825 10.1492 40.7032C9.98424 40.624 9.84871 40.499 9.76074 40.3448C9.67277 40.1907 9.63656 40.0148 9.65694 39.8406C9.67732 39.6665 9.75333 39.5024 9.8748 39.3702C9.99627 39.2381 10.1574 39.1442 10.3367 39.1011C10.5161 39.058 10.705 39.0677 10.8783 39.129C11.0516 39.1903 11.201 39.3002 11.3066 39.4441C11.4122 39.588 11.4689 39.7589 11.4692 39.9342C11.4838 40.1458 11.4095 40.3544 11.2624 40.5144C11.1154 40.6744 10.9075 40.7728 10.6841 40.7883ZM16.3002 39.3011C16.2973 39.4272 16.2598 39.5504 16.1916 39.6588C16.1233 39.7671 16.0266 39.8569 15.9109 39.9193C15.7951 39.9817 15.6643 40.0146 15.5311 40.0149C15.3979 40.0151 15.2669 39.9827 15.1508 39.9208L7.85481 36.0586C7.73771 35.9974 7.63995 35.9077 7.57158 35.7988C7.5032 35.6899 7.46669 35.5657 7.46578 35.439V16.6677C7.46636 16.538 7.50462 16.411 7.57635 16.3005C7.64809 16.19 7.75054 16.1003 7.87249 16.0413L15.1791 12.4037C15.295 12.3445 15.425 12.3145 15.5566 12.3166C15.6882 12.3187 15.8171 12.3529 15.9307 12.4158C16.0444 12.4787 16.1391 12.5682 16.2056 12.6758C16.2722 12.7834 16.3084 12.9054 16.3109 13.03L16.3002 39.3011Z" fill="white"/>
<path d="M43.6206 28.8167L47.6064 17.5687H50.3579L54.3259 28.8167H51.8291L50.899 25.926H46.9273L45.9972 28.8167H43.6206ZM48.8796 19.7192L47.426 24.268H50.4392L48.9856 19.7192H48.8796Z" fill="white"/>
<path d="M60.0199 28.7598C59.6908 28.6527 59.3878 28.4841 59.1287 28.2641C58.8785 28.0456 58.6796 27.7797 58.5451 27.4836H58.4284V31.7041H56.1332V20.0642H58.386V21.4577H58.5062C58.5975 21.2278 58.7303 21.0147 58.8988 20.8279C59.0723 20.6408 59.2765 20.4813 59.5036 20.3556C59.7476 20.2244 60.0093 20.1252 60.2816 20.0609C60.581 19.9895 60.8889 19.9546 61.1976 19.957C61.8487 19.9395 62.4912 20.1012 63.0473 20.4226C63.5722 20.748 63.9823 21.2146 64.225 21.7625C64.5144 22.4232 64.6541 23.1342 64.6352 23.8493V25.0384C64.6541 25.7528 64.5131 26.4628 64.2214 27.1219C63.9729 27.6704 63.5581 28.1367 63.0296 28.4617C62.4687 28.7874 61.8199 28.9514 61.1622 28.934C60.7739 28.9368 60.3877 28.8779 60.0199 28.7598ZM61.4346 26.9209C61.7297 26.7168 61.9548 26.4348 62.0818 26.1103C62.2418 25.7 62.3186 25.2647 62.3081 24.8274V24.0704C62.3189 23.6308 62.2421 23.1933 62.0818 22.7808C61.9525 22.4537 61.7235 22.1704 61.424 21.9668C61.198 21.8197 60.9403 21.7223 60.6695 21.6815C60.3988 21.6408 60.1218 21.6578 59.8589 21.7313C59.5959 21.8048 59.3536 21.9329 59.1496 22.1064C58.9456 22.2798 58.785 22.4942 58.6795 22.7339C58.5121 23.1121 58.4313 23.5197 58.4426 23.9297V25.0686C58.4342 25.4541 58.5177 25.8365 58.6866 26.1873C58.8339 26.496 59.0737 26.7569 59.3762 26.9376C59.6838 27.1181 60.0401 27.21 60.4019 27.2023C60.765 27.2101 61.1219 27.1119 61.424 26.9209H61.4346Z" fill="white"/>
<path d="M70.8561 28.7598C70.5263 28.6542 70.2229 28.4854 69.9649 28.264C69.7163 28.0464 69.5208 27.7801 69.392 27.4836H69.2788V31.7041H66.98V20.0642H69.2328V21.4576H69.3566C69.4451 21.2265 69.5782 21.0129 69.7492 20.8279C69.9211 20.6392 70.1256 20.4795 70.3539 20.3556C70.5973 20.2232 70.8593 20.1239 71.132 20.0608C71.4302 19.9893 71.7368 19.9544 72.0444 19.957C72.6957 19.9385 73.3385 20.1003 73.8941 20.4226C74.419 20.7479 74.8291 21.2146 75.0718 21.7624C75.3628 22.4227 75.5026 23.134 75.482 23.8492V25.0384C75.5009 25.7527 75.3599 26.4628 75.0682 27.1218C74.8214 27.6713 74.4062 28.138 73.8764 28.4617C73.3155 28.7873 72.6667 28.9514 72.009 28.934C71.6171 28.9386 71.2271 28.8797 70.8561 28.7598ZM72.2708 26.9208C72.5669 26.7177 72.7923 26.4355 72.918 26.1102C73.0798 25.7004 73.1566 25.2648 73.1443 24.8273V24.0703C73.1568 23.6307 73.08 23.1929 72.918 22.7807C72.8128 22.5426 72.6542 22.3289 72.4531 22.1547C72.252 21.9804 72.0133 21.8497 71.7535 21.7716C71.4937 21.6935 71.219 21.6699 70.9487 21.7025C70.6783 21.735 70.4186 21.8229 70.1877 21.9601C69.8885 22.1501 69.6549 22.4191 69.5157 22.7338C69.3512 23.1128 69.2717 23.52 69.2823 23.9296V25.0685C69.274 25.4541 69.3574 25.8364 69.5263 26.1873C69.6711 26.4965 69.91 26.7578 70.2125 26.9376C70.5202 27.1177 70.8764 27.2096 71.2381 27.2022C71.6 27.2094 71.9555 27.1112 72.2566 26.9208H72.2708Z" fill="white"/>
<path d="M77.9647 21.0691C78.3234 20.6606 78.7966 20.3564 79.3298 20.1915C79.9177 20.0045 80.5345 19.9116 81.1547 19.9168C81.7801 19.9058 82.4019 20.0082 82.9867 20.2183C83.4846 20.3888 83.9212 20.6896 84.2457 21.0858C84.5511 21.4891 84.7078 21.9765 84.6913 22.4726H82.6648C82.6449 22.2887 82.5741 22.1131 82.4597 21.9634C82.33 21.7912 82.1542 21.6548 81.9504 21.5682C81.69 21.4598 81.4072 21.4082 81.1229 21.4174C80.7395 21.3975 80.3596 21.4962 80.0407 21.6988C79.9136 21.7879 79.8112 21.9049 79.7423 22.0396C79.6733 22.1744 79.6398 22.3229 79.6446 22.4726C79.6407 22.5729 79.6588 22.673 79.6977 22.7663C79.7367 22.8597 79.7957 22.9445 79.8709 23.0152C80.0389 23.1655 80.2392 23.2797 80.458 23.3502C80.7126 23.4339 80.974 23.4977 81.2396 23.5411L82.0282 23.6684C82.5506 23.7431 83.0613 23.8781 83.549 24.0703C83.9633 24.2309 84.3238 24.4948 84.5923 24.834C84.8613 25.218 84.9939 25.6734 84.9707 26.1337C84.9878 26.6781 84.8232 27.2138 84.5003 27.6645C84.1599 28.1107 83.6872 28.4511 83.1423 28.6426C82.4643 28.8826 81.7438 28.9963 81.0203 28.9775C80.3321 28.987 79.6481 28.8734 79.0044 28.6426C78.4949 28.4671 78.0493 28.1567 77.7206 27.7482C77.4226 27.3518 77.2675 26.8748 77.2786 26.3883H79.496C79.5259 26.5912 79.6072 26.7843 79.733 26.951C79.8692 27.1199 80.0531 27.2488 80.2635 27.3228C80.5374 27.4223 80.8296 27.4689 81.1229 27.4601C81.4414 27.4704 81.7588 27.4203 82.0565 27.3128C82.2699 27.2321 82.4532 27.0934 82.5835 26.9142C82.6951 26.7505 82.7541 26.5597 82.7532 26.3648C82.7604 26.2417 82.7347 26.1188 82.6784 26.0075C82.6222 25.8963 82.5372 25.8003 82.4314 25.7284C82.1747 25.5669 81.8878 25.4532 81.5862 25.3934C81.2325 25.3197 80.8788 25.2461 80.4651 25.1757C79.9478 25.0825 79.4419 24.94 78.9549 24.7503C78.525 24.5914 78.1486 24.3252 77.8656 23.9799C77.5797 23.5873 77.438 23.1165 77.4625 22.6401C77.4323 22.0771 77.6098 21.5217 77.9647 21.0691Z" fill="white"/>
<path d="M93.1969 23.9129C93.1812 24.5142 93.2843 25.1129 93.501 25.6782C93.6656 26.1269 93.9792 26.513 94.3949 26.7787C94.8106 27.0444 95.306 27.1754 95.8069 27.152C96.2198 27.1608 96.6287 27.0746 96.9987 26.9008C97.3307 26.7428 97.6108 26.5019 97.8086 26.2041C98.0126 25.8959 98.134 25.5452 98.1623 25.1824H100.433V25.3968C100.404 26.0754 100.171 26.732 99.7608 27.2893C99.3451 27.8451 98.7813 28.2866 98.1269 28.5689C97.3951 28.8863 96.5975 29.0443 95.7927 29.0311C94.847 29.0596 93.9105 28.848 93.0802 28.4182C92.3381 28.0108 91.7466 27.3967 91.3861 26.6596C90.9786 25.7966 90.7804 24.858 90.8061 23.9129V22.5128C90.7804 21.5652 90.9799 20.6242 91.3897 19.7594C91.7495 19.013 92.3419 18.3889 93.0872 17.9707C93.9114 17.534 94.8453 17.3175 95.7892 17.3443C96.4032 17.3378 97.014 17.4284 97.5964 17.6123C98.1277 17.7782 98.62 18.0398 99.0464 18.3827C99.4628 18.7188 99.8007 19.1333 100.039 19.5999C100.277 20.0664 100.41 20.5747 100.429 21.0926V21.3203H98.1587C98.1318 20.9416 98.0106 20.5743 97.8051 20.2484C97.6089 19.9379 97.3279 19.6833 96.9917 19.5115C96.5864 19.3172 96.1347 19.2258 95.6809 19.2463C95.2271 19.2669 94.7867 19.3987 94.4029 19.6288C93.9928 19.9096 93.6811 20.3005 93.5081 20.7509C93.2855 21.3195 93.1799 21.9233 93.1969 22.5295V23.9129Z" fill="white"/>
<path d="M108.776 20.4025C109.399 20.721 109.911 21.2039 110.25 21.7926C110.615 22.451 110.795 23.1867 110.774 23.9297V24.9111C110.798 25.6748 110.618 26.4319 110.25 27.1118C109.913 27.7001 109.4 28.1812 108.776 28.4952C108.092 28.825 107.333 28.9896 106.565 28.9742C105.79 28.9921 105.023 28.8287 104.33 28.4985C103.702 28.1899 103.187 27.709 102.852 27.1185C102.482 26.4369 102.3 25.6773 102.325 24.9111V23.9464C102.306 23.2071 102.489 22.4757 102.855 21.8228C103.2 21.2311 103.715 20.7444 104.341 20.4193C105.024 20.0731 105.79 19.9 106.565 19.9168C107.333 19.9003 108.094 20.0673 108.776 20.4025ZM105.494 21.9199C105.2 22.1466 104.979 22.4457 104.854 22.7841C104.708 23.1698 104.636 23.577 104.641 23.9866V24.8944C104.635 25.3024 104.705 25.7082 104.847 26.0935C104.966 26.432 105.184 26.7315 105.476 26.9577C105.793 27.169 106.172 27.2824 106.56 27.2824C106.948 27.2824 107.327 27.169 107.644 26.9577C107.931 26.7291 108.144 26.4284 108.259 26.0902C108.398 25.703 108.466 25.2964 108.461 24.8877V24C108.467 23.5896 108.396 23.1814 108.252 22.7942C108.131 22.4575 107.913 22.1594 107.623 21.9333C107.321 21.7074 106.946 21.5889 106.562 21.5983C106.177 21.5852 105.8 21.6988 105.494 21.9199Z" fill="white"/>
<path d="M113.168 20.0743H115.456V21.4409H115.57C115.647 21.2067 115.767 20.9869 115.923 20.7911C116.123 20.5411 116.379 20.3363 116.673 20.1915C117.05 20.0122 117.468 19.9258 117.89 19.9403C118.038 19.9403 118.176 19.9403 118.296 19.957C118.402 19.9649 118.507 19.9783 118.611 19.9972V21.8764C118.485 21.8497 118.358 21.8318 118.229 21.8228C118.059 21.8228 117.875 21.8027 117.706 21.8027C117.276 21.7885 116.849 21.8772 116.464 22.0606C116.149 22.2183 115.895 22.4655 115.736 22.7674C115.57 23.0943 115.488 23.4533 115.495 23.8158V28.8168H113.154L113.168 20.0743Z" fill="white"/>
<path d="M120.581 20.0743H122.873V21.4409H122.986C123.063 21.2066 123.183 20.9867 123.339 20.7911C123.542 20.5419 123.799 20.3373 124.093 20.1915C124.468 20.0122 124.886 19.9258 125.306 19.9403C125.458 19.9403 125.592 19.9403 125.716 19.957C125.82 19.9648 125.924 19.9783 126.027 19.9972V21.8764C125.902 21.8492 125.774 21.8313 125.645 21.8228C125.476 21.8228 125.292 21.8027 125.122 21.8027C124.693 21.788 124.267 21.8768 123.884 22.0606C123.567 22.2172 123.311 22.4646 123.152 22.7674C122.986 23.0943 122.904 23.4533 122.911 23.8158V28.8168H120.57L120.581 20.0743Z" fill="white"/>
<path d="M128.181 16.6309C128.469 16.4012 128.837 16.2817 129.214 16.2959C129.599 16.2772 129.978 16.3968 130.275 16.6309C130.405 16.7403 130.509 16.8757 130.578 17.0274C130.647 17.1791 130.68 17.3433 130.674 17.5085C130.679 17.6715 130.646 17.8335 130.576 17.9828C130.507 18.1322 130.404 18.2653 130.275 18.3727C129.978 18.6067 129.599 18.7263 129.214 18.7076C128.837 18.7218 128.469 18.6024 128.181 18.3727C128.05 18.2661 127.946 18.1332 127.876 17.9837C127.807 17.8342 127.773 17.6719 127.778 17.5085C127.772 17.343 127.805 17.1783 127.875 17.0265C127.944 16.8747 128.049 16.7395 128.181 16.6309ZM128.075 20.091H130.363V28.8335H128.075V20.091Z" fill="white"/>
<path d="M137.518 20.1312C137.853 20.2358 138.161 20.4058 138.423 20.6303C138.669 20.8423 138.86 21.1062 138.978 21.4007H139.084V16.9658H141.38V28.8101H139.127V27.4166H139.014C138.943 27.6422 138.822 27.8511 138.66 28.0296C138.488 28.2192 138.284 28.38 138.055 28.5053C137.805 28.6419 137.536 28.7455 137.256 28.8134C136.946 28.8887 136.628 28.9258 136.308 28.924C135.668 28.939 135.036 28.781 134.487 28.4684C133.959 28.1497 133.542 27.6907 133.288 27.1487C132.986 26.5016 132.84 25.7991 132.86 25.092V23.789C132.841 23.0805 132.988 22.3768 133.291 21.729C133.552 21.1885 133.973 20.732 134.505 20.4159C135.056 20.103 135.69 19.944 136.333 19.957C136.735 19.9515 137.136 20.0104 137.518 20.1312ZM136.103 21.9601C135.805 22.1552 135.576 22.4306 135.445 22.7506C135.28 23.1528 135.202 23.5822 135.215 24.0134V24.8609C135.203 25.2956 135.282 25.7284 135.449 26.1337C135.581 26.4565 135.813 26.7343 136.114 26.9309C136.418 27.1164 136.774 27.211 137.136 27.2022C137.498 27.2134 137.855 27.12 138.16 26.9346C138.465 26.7492 138.704 26.4804 138.844 26.1639C139.017 25.781 139.1 25.3674 139.088 24.9513V23.8225C139.098 23.431 139.01 23.0429 138.83 22.6903C138.674 22.3836 138.429 22.1257 138.123 21.9475C137.817 21.7693 137.463 21.6783 137.104 21.6854C136.747 21.6775 136.397 21.7734 136.1 21.9601H136.103Z" fill="white"/>
<path d="M150.151 20.4025C150.775 20.7191 151.288 21.2025 151.625 21.7926C151.992 22.4501 152.174 23.1862 152.152 23.9296V24.9111C152.177 25.6752 151.996 26.4327 151.625 27.1118C151.29 27.7015 150.776 28.1831 150.151 28.4952C149.467 28.8258 148.707 28.9904 147.94 28.9742C147.166 28.9917 146.4 28.8283 145.709 28.4985C145.08 28.1899 144.565 27.7089 144.23 27.1185C143.86 26.4368 143.679 25.6773 143.703 24.9111V23.9464C143.684 23.2071 143.867 22.4757 144.234 21.8227C144.579 21.2311 145.094 20.7444 145.719 20.4192C146.401 20.0731 147.166 19.9 147.94 19.9168C148.708 19.8995 149.469 20.0666 150.151 20.4025ZM146.872 21.9199C146.578 22.1456 146.356 22.445 146.232 22.7841C146.086 23.1698 146.014 23.577 146.02 23.9866V24.8943C146.014 25.302 146.082 25.7076 146.221 26.0935C146.342 26.4322 146.562 26.7317 146.854 26.9577C147.172 27.169 147.55 27.2824 147.938 27.2824C148.326 27.2824 148.705 27.169 149.022 26.9577C149.308 26.7281 149.521 26.4278 149.638 26.0901C149.776 25.703 149.845 25.2964 149.839 24.8876V24C149.845 23.5896 149.774 23.1814 149.631 22.7941C149.508 22.4571 149.289 22.1591 148.998 21.9333C148.697 21.7064 148.321 21.5877 147.937 21.5983C147.553 21.5857 147.177 21.6993 146.872 21.9199Z" fill="white"/>
<path d="M154.547 20.0743H156.835V21.4409H156.948C157.027 21.2071 157.146 20.9875 157.302 20.7911C157.504 20.5419 157.761 20.3373 158.055 20.1915C158.432 20.0122 158.85 19.9258 159.271 19.9403C159.42 19.9403 159.558 19.9403 159.678 19.957C159.784 19.9649 159.889 19.9783 159.993 19.9972V21.8764C159.866 21.8495 159.737 21.8316 159.607 21.8228C159.44 21.8094 159.267 21.8027 159.088 21.8027C158.657 21.7885 158.231 21.8772 157.846 22.0606C157.531 22.2174 157.276 22.4648 157.118 22.7674C156.951 23.0937 156.868 23.4532 156.877 23.8158V28.8168H154.536L154.547 20.0743Z" fill="white"/>
</g>
<defs>
<clipPath id="clip0_23_92">
<rect width="160" height="48" fill="white"/>
</clipPath>
</defs>
</svg>
